<?xml version="1.0" encoding="utf-8"?>
<!-- Generator: Adobe Illustrator 27.0.0, SVG Export Plug-In . SVG Version: 6.00 Build 0)  -->
<svg version="1.1" xmlns="http://www.w3.org/2000/svg" xmlns:xlink="http://www.w3.org/1999/xlink" x="0px" y="0px"
	 viewBox="0 0 500 500" style="enable-background:new 0 0 500 500;" xml:space="preserve">
<style type="text/css">
	.st0{fill:#F3AE54;}
	.st1{fill:#FFFFFF;}
</style>
<g id="Layer_1">
	<g>
		<path class="st0" d="M493,395.8c0,53.7-43.5,97.2-97.2,97.2H104.2C50.5,493,7,449.5,7,395.8V104.2C7,50.5,50.5,7,104.2,7h291.6
			c53.7,0,97.2,43.5,97.2,97.2V395.8z"/>
		<g>
			<path class="st1" d="M458.1,266.6c0,36.4-29.4,66-65.7,66H107.6c-36.3,0-65.7-29.5-65.7-66V110.1c0-36.4,29.4-66,65.7-66h284.7
				c36.3,0,65.7,29.5,65.7,66V266.6z"/>
			<path class="st1" d="M301.2,321.3l-42.3-2.6v-1.1l-8.9,0.6l-9-0.6v1.1l-42.3,2.6l40.4,65.8c0,0,0.4,0.6,1.1,1.5
				c2,3.4,5.6,5.6,9.7,5.6c4.1,0,7.7-2.3,9.7-5.6c0.8-1,1.1-1.6,1.1-1.6L301.2,321.3z"/>
		</g>
		<g>
			<g>
				<path class="st0" d="M134.3,158.8c0,0-11.4,0-21.7,10v-40.4H87.2v106.2h25.7v-8.3c0,0,6.1,11,21.4,11c0,0,35.9-1.3,35.9-39.6
					C170.2,197.6,168.9,158.8,134.3,158.8z M128.7,214.8c-9,0-16.4-7.3-16.4-16.4c0-9,7.3-16.4,16.4-16.4c9,0,16.4,7.3,16.4,16.4
					C145.1,207.5,137.8,214.8,128.7,214.8z"/>
				<path class="st0" d="M178.4,126.1v24.6c0,0,11.6-0.5,11.6,21.1v62.8h24.6v-68.6C214.6,165.9,215.7,126.1,178.4,126.1z"/>
				<path class="st0" d="M274.7,159.1c0,0-42.1,0-42.1,39.3c0,0-1.4,38.8,42.1,38.8c0,0,43.1-0.1,43.1-38.8
					C317.7,198.5,319.1,159.1,274.7,159.1z M274.7,214.8c-9,0-16.4-7.3-16.4-16.4c0-9,7.3-16.4,16.4-16.4c9,0,16.4,7.3,16.4,16.4
					C291,207.5,283.7,214.8,274.7,214.8z"/>
				<path class="st0" d="M388,161.7v7.1c0,0-7.3-9.7-21.4-9.7c0,0-36-1.5-36,39c0,0-0.4,37.8,35.1,37.8c0,0,14.5,0.6,22.4-9.7v5.9
					c0,0,1.8,18.6-16.2,18.6h-6.1v22.6h9.9c0,0,37.2,0.4,37.2-39.8v-71.9H388z M372.8,214.8c-9,0-16.4-7.3-16.4-16.4
					c0-9,7.3-16.4,16.4-16.4c9,0,16.4,7.3,16.4,16.4C389.2,207.5,381.8,214.8,372.8,214.8z"/>
			</g>
		</g>
	</g>
</g>
<g id="Layer_2">
</g>
</svg>
