<?xml version="1.0" encoding="UTF-8"?>
<svg id="Layer_2" data-name="Layer 2" xmlns="http://www.w3.org/2000/svg" viewBox="0 0 354.78 600">
  <defs>
    <style>
      .cls-1 {
        fill: #fff;
      }

      .cls-2 {
        fill: #ff9000;
      }
    </style>
  </defs>
  <g id="DESIGNED_BY_FREEPIK" data-name="DESIGNED BY FREEPIK">
    <path class="cls-2" d="M55,0h250.53s0,.09,0,.13c0,24.96,20.23,45.19,45.19,45.19,.02,0,.05,0,.07,0v509.47c-24.95,0-45.18,20.23-45.18,45.18,0,.01,0,.02,0,.04H55c-30.38,0-55-24.62-55-55V55C0,24.62,24.62,0,55,0Z"/>
    <path class="cls-1" d="M354.78,55.31c0,2.21-1.79,4-4,4h0v-14c1.34,0,2.67-.07,3.98-.19,0,.06,.02,.13,.02,.19v10Z"/>
    <path class="cls-1" d="M350.78,45.31v14c-2.21,0-4-1.79-4-4v-10c0-.06,.02-.12,.02-.18,1.29,.11,2.59,.18,3.91,.18,.02,0,.05,0,.07,0Z"/>
    <path class="cls-1" d="M346.78,463.2v-20.39c0-2.21,1.79-4,4-4v28.39c-2.21,0-4-1.79-4-4Z"/>
    <path class="cls-1" d="M346.78,412.21v-20.39c0-2.21,1.79-4,4-4v28.39c-2.21,0-4-1.79-4-4Z"/>
    <path class="cls-1" d="M354.78,493.79v20.39c0,2.21-1.79,4-4,4h0v-28.39h0c2.21,0,4,1.79,4,4Z"/>
    <path class="cls-1" d="M346.78,514.19v-20.39c0-2.21,1.79-4,4-4v28.39c-2.21,0-4-1.79-4-4Z"/>
    <path class="cls-1" d="M346.78,310.24v-20.39c0-2.21,1.79-4,4-4v28.39c-2.21,0-4-1.79-4-4Z"/>
    <path class="cls-1" d="M346.78,208.27v-20.39c0-2.21,1.79-4,4-4v28.39c-2.21,0-4-1.79-4-4Z"/>
    <path class="cls-1" d="M346.78,157.29v-20.39c0-2.21,1.79-4,4-4v28.39c-2.21,0-4-1.79-4-4Z"/>
    <path class="cls-1" d="M346.78,106.3v-20.39c0-2.21,1.79-4,4-4v28.39c-2.21,0-4-1.79-4-4Z"/>
    <path class="cls-1" d="M346.78,259.26v-20.39c0-2.21,1.79-4,4-4v28.39c-2.21,0-4-1.79-4-4Z"/>
    <path class="cls-1" d="M354.78,442.81v20.39c0,2.21-1.79,4-4,4h0v-28.39h0c2.21,0,4,1.79,4,4Z"/>
    <path class="cls-1" d="M346.78,361.23v-20.39c0-2.21,1.79-4,4-4v28.39c-2.21,0-4-1.79-4-4Z"/>
    <path class="cls-1" d="M354.78,187.88v20.39c0,2.21-1.79,4-4,4h0v-28.39h0c2.21,0,4,1.79,4,4Z"/>
    <path class="cls-1" d="M354.78,391.82v20.39c0,2.21-1.79,4-4,4h0v-28.39h0c2.21,0,4,1.79,4,4Z"/>
    <path class="cls-1" d="M354.78,85.91v20.39c0,2.21-1.79,4-4,4h0v-28.39h0c2.21,0,4,1.79,4,4Z"/>
    <path class="cls-1" d="M354.78,136.89v20.39c0,2.21-1.79,4-4,4h0v-28.39h0c2.21,0,4,1.79,4,4Z"/>
    <path class="cls-1" d="M354.78,340.83v20.39c0,2.21-1.79,4-4,4h0v-28.39h0c2.21,0,4,1.79,4,4Z"/>
    <path class="cls-1" d="M354.78,289.85v20.39c0,2.21-1.79,4-4,4h0v-28.39h0c2.21,0,4,1.79,4,4Z"/>
    <path class="cls-1" d="M354.78,238.86v20.39c0,2.21-1.79,4-4,4h0v-28.39h0c2.21,0,4,1.79,4,4Z"/>
    <path class="cls-1" d="M346.78,544.78c0-2.21,1.79-4,4-4v14c-1.34,0-2.67,.07-3.98,.19,0-.06-.02-.12-.02-.19v-10Z"/>
    <path class="cls-1" d="M350.78,554.78v-14h0c2.21,0,4,1.79,4,4v10c0,.06-.02,.12-.02,.18-1.31-.11-2.63-.18-3.97-.18,0,0,0,0,0,0Z"/>
  </g>
</svg>