<?xml version="1.0" encoding="UTF-8"?>
<svg id="Layer_2" data-name="Layer 2" xmlns="http://www.w3.org/2000/svg" viewBox="0 0 399.56 177.5">
  <defs>
    <style>
      .cls-1 {
        fill: #fff;
      }

      .cls-2 {
        fill: #009cea;
      }
    </style>
  </defs>
  <g id="OBJECTS">
    <g>
      <rect class="cls-1" x="14.54" width="341.11" height="177.5"/>
      <path class="cls-1" d="M329.78,177.5h69.78v-6.25c-3.11,0-5.62-2.52-5.62-5.62s2.52-5.62,5.62-5.62v-5.97c-3.11,0-5.62-2.52-5.62-5.62s2.52-5.62,5.62-5.62v-5.97c-3.11,0-5.62-2.52-5.62-5.62s2.52-5.62,5.62-5.62v-5.97c-3.11,0-5.62-2.52-5.62-5.62s2.52-5.62,5.62-5.62v-5.97c-3.11,0-5.62-2.52-5.62-5.62s2.52-5.62,5.62-5.62v-5.97c-3.11,0-5.62-2.52-5.62-5.62s2.52-5.62,5.62-5.62v-5.97c-3.11,0-5.62-2.52-5.62-5.62s2.52-5.62,5.62-5.62v-5.97c-3.11,0-5.62-2.52-5.62-5.62s2.52-5.62,5.62-5.62v-5.97c-3.11,0-5.62-2.52-5.62-5.62s2.52-5.62,5.62-5.62v-5.97c-3.11,0-5.62-2.52-5.62-5.62s2.52-5.62,5.62-5.62V0h-69.78V177.5Z"/>
      <path class="cls-2" d="M69.78,0H0V6.25c3.11,0,5.62,2.52,5.62,5.62s-2.52,5.62-5.62,5.62v5.97c3.11,0,5.62,2.52,5.62,5.62s-2.52,5.62-5.62,5.62v5.97c3.11,0,5.62,2.52,5.62,5.62s-2.52,5.62-5.62,5.62v5.97c3.11,0,5.62,2.52,5.62,5.62s-2.52,5.62-5.62,5.62v5.97c3.11,0,5.62,2.52,5.62,5.62s-2.52,5.62-5.62,5.62v5.97c3.11,0,5.62,2.52,5.62,5.62s-2.52,5.62-5.62,5.62v5.97c3.11,0,5.62,2.52,5.62,5.62s-2.52,5.62-5.62,5.62v5.97c3.11,0,5.62,2.52,5.62,5.62s-2.52,5.62-5.62,5.62v5.97c3.11,0,5.62,2.52,5.62,5.62s-2.52,5.62-5.62,5.62v5.97c3.11,0,5.62,2.52,5.62,5.62s-2.52,5.62-5.62,5.62v5H69.78V0Z"/>
    </g>
  </g>
</svg>