<svg width="167" height="80" viewBox="0 0 167 80" fill="none" xmlns="http://www.w3.org/2000/svg">
<path d="M81.9637 21.1639C81.5147 22.1192 81.0982 23.0136 80.6722 23.9036C80.5898 24.0684 80.548 24.2507 80.5503 24.4351C80.5806 26.5736 80.6042 28.7121 80.6367 30.8506C80.6419 31.1646 80.605 31.437 80.4152 31.7169C78.2736 34.8678 75.3051 36.9024 71.7834 38.1918C70.674 38.5963 69.5393 38.9263 68.3864 39.1797C67.9559 39.2748 67.9434 39.277 67.9389 38.8227C67.9234 37.8332 67.9227 36.8438 67.9116 35.8536C67.8887 33.7648 67.8828 31.6745 67.8326 29.5865C67.789 27.7939 67.7802 26.0013 67.7676 24.2094C67.7781 23.852 67.672 23.5009 67.4656 23.2096C67.0521 22.6328 66.6791 22.0264 66.2383 21.3539C66.7087 21.3539 67.0964 21.3427 67.4833 21.3583C67.6761 21.3665 67.7624 21.2945 67.8282 21.1171C69.726 15.9538 71.6251 10.7907 73.5254 5.62793C73.7056 5.13505 73.5992 4.59838 73.6059 4.08249C73.6191 3.25114 73.583 3.23184 72.7596 3.09452C71.9362 2.9572 71.1202 3.08116 70.3146 3.27638C69.4941 3.47531 68.6693 3.58368 67.8393 3.32463C67.2911 3.1587 66.7975 2.84742 66.4103 2.4235C66.8824 2.44833 67.3557 2.41819 67.8208 2.33369C68.5487 2.19692 69.2389 1.90481 69.8449 1.47709C70.9925 0.660583 72.2744 0.202593 73.6605 0.00885816C73.888 -0.0230599 73.964 0.0244508 73.9736 0.264207C74.0386 1.85566 74.1213 3.44636 74.1878 5.03781C74.1961 5.30836 74.2513 5.57538 74.351 5.82685C76.3537 10.8313 78.3512 15.8377 80.3435 20.8462C80.4528 21.1201 80.5717 21.2173 80.8811 21.1735C81.2164 21.1238 81.5657 21.1639 81.9637 21.1639Z" fill="white"/>
<path d="M49.3701 18.4519C48.9137 16.5724 48.6973 14.7353 49.8523 12.959C49.0252 12.9078 48.3096 12.5782 47.5631 12.3652C46.8024 12.1425 46.0226 12.115 45.2266 12.1172C46.609 10.8442 48.0718 9.76792 50.1004 9.89039C49.5886 8.46076 49.5709 6.84705 48.4322 5.55474C48.9853 5.64381 49.4033 5.82195 49.8212 5.99416C50.2659 6.17426 50.6938 6.39334 51.1003 6.64886C51.4971 6.89766 51.865 7.19047 52.1969 7.52178C52.5277 7.85729 52.7625 8.25589 52.9841 8.69235C53.964 7.46536 55.3848 6.65999 55.949 5.05518C56.3817 6.36456 56.6571 8.87198 55.5192 10.5124C56.5818 10.5867 57.5093 11.1545 58.5624 11.222C59.0563 11.2656 59.5528 11.2699 60.0474 11.2347C58.679 12.5819 57.1992 13.6924 55.1145 13.6144C55.6735 15.0448 55.6373 16.6979 56.7207 17.9679C55.5103 18.077 53.0653 16.3802 52.3047 14.9349C51.2775 16.0647 49.9667 16.9458 49.3701 18.4519Z" fill="white"/>
<path d="M104.224 31.2636C105.157 31.7536 106.423 31.6853 108.537 31.0283C108.339 31.3913 108.067 31.6444 107.798 31.8961C106.147 33.4348 104.209 33.6456 102.12 33.1179C100.092 32.6057 98.2558 31.6823 96.5884 30.4226C95.6358 29.7026 94.7245 28.9173 93.4492 28.7102C93.7409 28.325 94.1072 28.1758 94.5082 28.1127C95.1211 28.0154 95.7045 28.0926 96.2391 28.4467C96.5355 28.6457 96.8515 28.8136 97.1821 28.9477C98.0025 29.2728 98.7853 29.2394 99.5407 28.7533C101.205 27.6829 102.446 26.2176 103.444 24.5282C104.397 22.9114 105.104 21.1599 105.539 19.3322C105.646 18.8913 105.663 18.8869 106.042 19.1622C106.944 19.8221 107.421 20.7671 107.546 21.83C107.902 24.863 107.338 27.6814 105.378 30.1124C105.036 30.5355 104.624 30.8947 104.224 31.2636Z" fill="white"/>
<path d="M166.793 39.968C166.593 38.8717 166.055 38.0381 164.927 37.7085C164.169 37.4868 163.371 37.4401 162.592 37.5719C161.096 37.8139 159.814 38.5265 158.618 39.4187C156.829 40.7548 155.395 42.4302 154.125 44.2473C150.631 49.2458 148.105 54.7 146.596 60.6234C146.552 60.7964 146.579 60.9723 146.266 60.8825C143.877 60.1974 141.559 60.4631 139.362 61.5832C137.675 62.4443 136.498 63.8427 135.633 65.5173C135.277 66.2084 134.907 66.8927 134.413 67.4992C134.118 67.8577 133.796 68.1761 133.352 68.3343C133.034 68.4471 132.677 68.5258 132.397 68.3075C132.102 68.0759 132.257 67.7211 132.346 67.4413C132.598 66.6545 132.896 65.8825 133.159 65.1016C133.368 64.4811 133.55 63.8509 133.492 63.1821C133.397 62.0583 132.34 61.3605 131.284 61.7317C130.857 61.8931 130.46 62.1254 130.11 62.419C129.141 63.1888 128.348 64.1396 127.487 65.0215C126.264 66.2759 125.026 67.5148 123.555 68.4842C122.946 68.8858 122.308 69.2265 121.571 69.3326C120.833 69.4388 120.632 69.2465 120.827 68.5102C120.993 67.8792 121.213 67.2624 121.411 66.6404C121.763 65.5359 122.173 64.4447 122.133 63.2556C122.104 62.3441 121.611 61.82 120.711 61.7228C119.685 61.6122 118.772 61.9247 117.91 62.442C116.701 63.1672 115.72 64.1537 114.816 65.2204C113.561 66.6983 112.347 68.2066 110.892 69.4952C110.375 69.9532 109.846 70.3993 109.193 70.6554C108.495 70.9293 108.095 70.7066 107.923 69.9665C107.817 69.513 107.923 69.0817 108.051 68.6557C108.311 67.7768 108.723 66.9603 109.093 66.1267C109.422 65.3844 109.771 64.6421 109.905 63.8316C110.053 62.9549 109.702 62.4777 108.826 62.3864C108.078 62.3084 107.34 62.3671 106.703 62.8109C105.863 63.3966 105.078 63.3699 104.266 62.7486C103.939 62.4826 103.55 62.306 103.135 62.2357C101.808 62.0329 100.453 62.3167 99.3166 63.0351C97.531 64.1374 96.235 65.7014 95.329 67.589C94.9257 68.399 94.7268 69.2963 94.75 70.2018C94.7884 71.3331 95.2101 72.3099 96.0054 73.1368C95.7743 73.3067 95.5195 73.4412 95.2492 73.5362C92.7288 74.5226 90.2609 74.274 87.8469 73.1717C86.6454 72.6231 85.7792 71.7287 85.3096 70.4676C85.2173 70.2204 85.2239 70.0556 85.4314 69.8582C85.9217 69.3905 86.3914 68.8932 86.8485 68.3988C91.1714 63.7143 94.6348 58.4448 97.3641 52.684C98.7052 49.853 99.9229 46.9685 100.669 43.908C101.038 42.4019 101.291 40.8832 101.076 39.3222C100.834 37.5712 99.6726 36.7324 97.9468 37.0553C96.3798 37.3522 94.993 38.0418 93.7162 38.9711C91.3922 40.662 89.5675 42.831 87.9894 45.2063C84.2528 50.8258 81.6829 57.1455 80.4335 63.787C80.0584 65.7467 79.8871 67.7293 80.0562 69.7253C80.0879 70.0964 79.9875 70.3109 79.7099 70.5269C78.5165 71.4563 77.2309 72.2223 75.8138 72.7441C74.6396 73.1761 73.4271 73.3565 72.1953 73.0084C71.4162 72.7857 71.0958 72.3077 71.098 71.503C71.098 71.0577 71.2457 70.6561 71.4325 70.2634C71.7714 69.5457 72.2529 68.9169 72.6879 68.2593C73.0527 67.7033 73.4263 67.1459 73.574 66.4823C73.7682 65.5982 73.3584 64.9383 72.4818 64.7453C72.2189 64.6874 71.9487 64.6629 71.6814 64.6236C70.9244 64.513 70.5471 64.1723 70.3639 63.4263C70.296 63.1509 70.2473 62.8703 70.1719 62.5972C69.8448 61.4051 68.5968 60.8899 67.543 61.5142C66.1629 62.3366 65.5448 64.5969 66.5661 65.8194C67.0032 66.339 67.0667 66.9833 66.9168 67.6462C66.7403 68.427 66.332 69.0862 65.8217 69.6778C64.0959 71.6767 61.9411 73.0366 59.4651 73.888C58.6572 74.1633 57.7918 74.2224 56.9543 74.0595C55.3371 73.7574 54.3033 72.5563 54.3077 70.9805C54.3077 70.7029 54.3505 70.5618 54.702 70.544C56.4005 70.4579 57.9977 70.0081 59.389 68.9786C60.5883 68.0915 61.5837 67.039 62.0474 65.5641C62.5533 63.9511 61.7004 61.7955 59.3011 61.8222C58.0827 61.8363 56.9484 62.1874 55.8887 62.7694C54.1792 63.7098 53.0087 65.1736 52.1108 66.8682C51.9372 67.1949 51.8213 67.1399 51.6256 66.9469C51.3302 66.65 51.2401 66.2685 51.1722 65.8758C51.0939 65.4305 51.0769 64.9658 50.8842 64.5397C50.484 63.6579 49.4161 63.4768 48.7493 64.179C48.5067 64.4445 48.3472 64.776 48.2907 65.1321C48.1873 65.665 48.1061 66.2032 47.9917 66.7339C47.652 68.3105 47.1845 69.8441 46.2711 71.1928C45.41 72.4636 44.3127 73.4397 42.7708 73.7908C42.1556 73.9318 41.6498 73.6423 41.4187 73.0485C41.24 72.5897 41.2267 72.1095 41.2525 71.6255C41.3315 70.1499 41.7259 68.7306 41.9762 67.2802C42.1276 66.4058 42.3159 65.5321 42.1704 64.634C42.0537 63.911 41.6956 63.5948 40.9638 63.6237C39.3281 63.6883 38.2743 64.582 37.6562 66.0451C37.1696 67.1948 36.6312 68.3157 35.9578 69.3668C35.5885 69.948 35.1853 70.5114 34.8058 71.0881C34.6234 71.365 34.4247 71.6396 34.3797 71.9826C34.3258 72.393 34.5274 72.6038 34.9321 72.546C35.211 72.4994 35.4811 72.4095 35.7325 72.2795C36.747 71.7714 37.6301 71.0332 38.312 70.1231C38.3733 70.0422 38.4035 69.9212 38.5616 69.9005C38.5401 70.1439 38.5232 70.374 38.4995 70.6041C38.3725 71.8586 38.2322 73.1101 38.3843 74.3749C38.5549 75.7927 39.2904 76.656 40.5672 76.8445C41.3323 76.9581 42.056 76.7703 42.7486 76.4474C44.7306 75.5247 46.198 74.0253 47.4186 72.2483C48.1257 71.2037 48.7238 70.0886 49.2035 68.9207C49.6858 69.356 50.2372 69.7072 50.8347 69.9598C51.0001 70.0341 51.0378 70.1306 51.0289 70.2998C51.0016 70.8305 50.9736 71.362 50.978 71.8935C50.9972 74.0728 52.1802 75.7964 54.1031 76.4526C55.2455 76.8423 56.4064 76.7977 57.5606 76.5268C60.1806 75.9144 62.4344 74.5805 64.4748 72.8681C66.2663 71.3642 67.8443 69.6525 69.1204 67.6721C69.158 67.6142 69.175 67.517 69.2681 67.5237C69.3611 67.5304 69.3907 67.6335 69.4246 67.7085C69.5398 67.9587 69.5073 68.2155 69.4409 68.4693C69.3187 68.909 69.1452 69.3326 68.924 69.7312C68.4536 70.6123 67.9913 71.4964 67.7469 72.4777C67.3038 74.245 68.0622 75.5952 69.8005 76.1148C70.9015 76.4422 72.0218 76.391 73.1236 76.1586C75.83 75.5886 78.3666 74.5924 80.6455 72.9898C80.8493 72.8466 80.9025 72.8829 81.0073 73.0863C81.6617 74.3866 82.6912 75.4582 83.9612 76.1609C86.3294 77.4851 88.8926 77.88 91.5532 77.5764C94.9501 77.1897 97.9911 75.855 100.742 73.8464C102.177 72.7991 103.474 71.5877 104.743 70.3392C104.829 70.2538 104.89 70.112 105.061 70.1254C105.102 70.2842 105.015 70.4045 104.976 70.5277C104.759 71.1856 104.665 71.8781 104.698 72.5704C104.785 74.1159 106.036 74.9324 107.468 74.3712C108.178 74.0929 108.764 73.6208 109.339 73.1346C110.685 71.9981 111.991 70.8105 113.442 69.8055C114.033 69.3987 114.631 69.0112 115.32 68.7967C116.26 68.5042 116.768 68.8806 116.811 69.8656C116.849 70.7481 116.63 71.578 116.337 72.3968C116.19 72.8147 116.012 73.2266 115.988 73.6779C115.961 74.1975 116.156 74.4299 116.67 74.4989C117.439 74.6021 118.16 74.418 118.85 74.0943C120.22 73.4523 121.4 72.5185 122.594 71.6062C123.729 70.7392 124.82 69.8121 126.065 69.1003C126.611 68.7878 127.196 68.6141 127.825 68.6445C128.479 68.6757 128.697 69.0045 128.505 69.6347C128.463 69.7767 128.41 69.9148 128.345 70.0474C128.116 70.498 127.877 70.9434 127.647 71.3924C127.391 71.8913 127.204 72.4101 127.218 72.9832C127.232 73.528 127.496 73.8338 128.04 73.8924C128.382 73.9349 128.729 73.9219 129.068 73.8538C130.708 73.5005 132.095 72.6595 133.377 71.6107C133.894 71.1761 134.364 70.6887 134.78 70.1565C135.048 71.2091 135.548 72.0479 136.313 72.7078C138.173 74.3126 140.374 74.7431 142.732 74.444C144.676 74.1968 146.441 73.4233 148.063 72.3262C148.227 72.2156 148.295 72.2453 148.414 72.3767C148.671 72.6595 148.931 72.952 149.253 73.1546C151.811 74.7453 154.543 75.4067 157.524 74.6859C157.712 74.6303 157.893 74.5517 158.062 74.4521C158.183 74.389 158.296 74.2918 158.284 74.1381C158.272 73.9845 158.136 73.9258 158.003 73.885C157.909 73.8561 157.815 73.8294 157.72 73.8056C156.933 73.6096 156.147 73.4144 155.398 73.0923C153.909 72.4495 152.57 71.5995 151.564 70.2909C151.226 69.8507 151.228 69.8455 151.616 69.4744C152.416 68.7049 153.174 67.8934 153.889 67.0434C157.615 62.6462 160.633 57.782 163.241 52.6506C164.588 50.0036 165.77 47.2765 166.472 44.369C166.821 42.9238 167.067 41.4607 166.793 39.968ZM58.2695 65.0318C58.5974 64.9628 58.9289 64.9428 59.2494 65.0667C59.6467 65.2204 59.7664 65.4883 59.6187 65.8929C59.532 66.126 59.3843 66.3312 59.1911 66.4867C58.1964 67.3099 57.0385 67.7427 55.7706 67.897C55.6356 67.9049 55.5003 67.8964 55.3674 67.8718C55.2726 67.853 55.1791 67.8282 55.0875 67.7976C55.8134 66.4607 56.7091 65.3607 58.2695 65.0318ZM84.7291 63.6215C85.6603 58.358 87.5427 53.4144 89.8075 48.6067C90.9277 46.2314 92.1905 43.9303 93.7826 41.8244C94.4243 40.9768 95.12 40.1766 95.9943 39.556C96.2929 39.338 96.6242 39.1694 96.9757 39.0565C97.466 38.908 97.7821 39.052 97.966 39.5397C98.2141 40.1959 98.1668 40.8758 98.0908 41.5557C97.8818 43.407 97.3412 45.1758 96.6877 46.9091C95.1495 50.9968 93.0789 54.8196 90.845 58.5555C89.3246 61.0978 87.714 63.5807 85.7726 65.8298C85.4034 66.2574 84.9994 66.6552 84.5534 67.1288C84.3998 65.8884 84.5298 64.7498 84.7291 63.62V63.6215ZM104.262 66.7873C103.311 68.5807 101.906 69.8975 100.071 70.7452C99.8668 70.8303 99.6544 70.8926 99.437 70.9307C98.3079 71.1661 97.7385 70.1306 97.8567 69.3319C97.9107 68.9272 98.0389 68.5361 98.2348 68.1784C99.1076 66.6159 100.336 65.4201 101.94 64.6318C102.545 64.3348 103.172 64.2168 103.817 64.5442C104.288 64.7832 104.547 65.1499 104.555 65.5329C104.569 65.9692 104.468 66.4013 104.262 66.7859V66.7873ZM146.181 69.7669C145.106 70.7318 143.359 71.3999 141.893 71.4162C141.376 71.408 140.866 71.3501 140.376 71.1631C139.146 70.6932 138.423 69.4989 138.538 68.1784C138.697 66.3769 139.641 65.0608 141.003 63.9674C142.411 62.8414 144.038 62.3403 145.803 62.1793C146.082 62.154 146.09 62.2535 146.052 62.4821C145.675 64.7435 145.794 67.0602 146.398 69.271C146.464 69.5256 146.328 69.6347 146.181 69.7654V69.7669ZM163.955 43.217C163.138 45.6984 162.029 48.0529 160.842 50.3748C159.032 53.929 157.01 57.3699 154.787 60.6784C153.495 62.592 152.172 64.4848 150.527 66.12C150.388 66.2581 150.244 66.391 150.053 66.5736C149.834 65.8572 149.729 65.1103 149.743 64.3608C149.749 62.1681 150.177 60.0408 150.777 57.9453C152.263 52.6797 154.644 47.712 157.814 43.2615C158.741 41.9603 159.773 40.7504 161.059 39.7869C161.643 39.3497 162.26 38.9704 163.001 38.8516C163.983 38.692 164.561 39.1485 164.572 40.1454C164.58 41.2076 164.283 42.2186 163.955 43.2155V43.217Z" fill="white"/>
<path d="M81.5848 36.0058C81.5472 35.5604 81.3286 35.452 80.9394 35.6636C80.7172 35.7964 80.5116 35.9557 80.3272 36.1379C78.5008 37.798 76.4203 39.1514 74.1656 40.1462C71.1165 41.5024 67.9005 42.2031 64.6166 42.67C60.2018 43.2936 55.7194 43.2541 51.3162 42.5527C46.1005 41.7362 40.9889 40.4803 36.039 38.6015C32.2729 37.1719 28.4839 35.8061 24.593 34.7476C21.9109 34.018 19.2155 33.8465 16.5061 34.5665C14.4732 35.1069 12.6514 36.0555 11.3709 37.7717C9.44426 40.3541 9.12008 43.2356 10.0771 46.2782C10.5202 47.6767 11.2904 48.8873 12.342 49.9666C12.2327 50.0022 12.1743 50.023 12.116 50.0408C12.0577 50.0586 11.9971 50.072 11.938 50.0898C7.14176 51.5499 3.46867 54.395 1.36776 59.0306C-0.482812 63.1131 -0.478376 67.258 1.52063 71.3034C3.25378 74.8107 6.08281 77.1586 9.64365 78.6565C12.1958 79.7306 14.8823 80.0379 17.619 79.9963C20.499 79.9525 23.2482 79.3624 25.8159 78.0203C28.2085 76.7718 30.1292 74.9711 31.7818 72.8622C33.6522 70.4806 35.0481 67.7587 35.8928 64.8456C36.0016 64.5035 36.0472 64.1442 36.0272 63.7856C36.0103 63.5674 35.9615 63.3707 35.7319 63.2757C35.6353 63.2331 35.5284 63.22 35.4245 63.2378C35.3206 63.2556 35.2241 63.3036 35.147 63.3759C35.0187 63.4909 34.9047 63.621 34.8073 63.7634C34.5289 64.1568 34.3147 64.588 34.0954 65.0163C33.3018 66.5934 32.3512 68.0856 31.2583 69.47C29.6824 71.4385 27.8614 73.1161 25.5478 74.1724C22.9528 75.36 20.2243 75.6131 17.4336 75.1574C13.6513 74.5398 10.4921 72.7769 8.13941 69.7172C4.8385 65.4253 4.97513 59.7001 9.2951 55.4283C10.8171 53.923 12.678 52.9944 14.6548 52.2625C14.7276 52.2341 14.8063 52.2245 14.8837 52.2347C14.9611 52.2448 15.0347 52.2742 15.0979 52.3204C16.7868 53.332 18.5938 54.1298 20.4775 54.6957C23.8959 55.7349 27.3577 56.106 30.8839 55.3377C31.9177 55.1151 32.9516 54.8716 33.8185 54.2095C35.0532 53.2668 35.1935 51.8676 34.173 50.6933C33.5157 49.9384 32.6658 49.473 31.753 49.1174C29.644 48.2957 27.4286 48.1213 25.1985 48.0716C22.3323 47.9974 19.4686 48.2935 16.6775 48.9526C16.5135 48.992 16.3946 49.0039 16.2898 48.8101C15.5188 47.3797 15.0898 45.8529 15.3829 44.2436C15.9456 41.1542 17.729 39.0796 20.7663 38.2007C22.9964 37.5549 25.2524 37.788 27.4944 38.1643C30.57 38.6839 33.5239 39.6489 36.4607 40.6688C40.2187 41.9737 43.942 43.3774 47.7451 44.5479C53.8425 46.4244 60.0426 47.6336 66.4546 47.4889C68.6249 47.4399 70.7731 47.235 72.8725 46.6545C77.4295 45.3927 80.3597 42.5371 81.3973 37.8385C81.5331 37.2402 81.6388 36.6293 81.5848 36.0058ZM21.5594 50.5396C23.3464 50.3674 25.1372 50.2828 26.9265 50.5226C27.8798 50.6502 28.8133 50.8492 29.6758 51.2982C29.9751 51.4447 30.241 51.6516 30.457 51.9062C30.9356 52.5 30.8204 53.1443 30.1617 53.5258C29.5975 53.8524 28.9705 53.9846 28.3377 54.0751C25.1483 54.5309 22.2306 53.7099 19.4828 52.1303C19.1978 51.9663 18.9497 51.7362 18.6846 51.5365L18.3153 51.2604C19.3625 50.883 20.453 50.6408 21.5609 50.5396H21.5594Z" fill="white"/>
</svg>
