<svg width="27" height="28" viewBox="0 0 27 28" fill="none" xmlns="http://www.w3.org/2000/svg">
<path d="M14.8683 0.458183C15.8413 0.45445 16.8142 0.464228 17.7869 0.487516L18.0456 0.496849C18.3442 0.507515 18.6389 0.520848 18.9949 0.536847C20.4135 0.603512 21.3814 0.827504 22.2307 1.15683C23.1107 1.49548 23.852 1.95413 24.5933 2.69544C25.2711 3.36156 25.7957 4.16732 26.1306 5.05669C26.4599 5.906 26.6839 6.8753 26.7506 8.29392C26.7666 8.64857 26.7799 8.94456 26.7906 9.24322L26.7986 9.50188C26.8223 10.4741 26.8325 11.4466 26.8293 12.4191L26.8306 13.4137V15.1603C26.8339 16.1333 26.8237 17.1063 26.7999 18.0789L26.7919 18.3376C26.7813 18.6362 26.7679 18.9309 26.7519 19.2869C26.6853 20.7055 26.4586 21.6735 26.1306 22.5228C25.7968 23.4131 25.2721 24.2195 24.5933 24.8854C23.9266 25.5631 23.1205 26.0876 22.2307 26.4226C21.3814 26.752 20.4135 26.9759 18.9949 27.0426C18.6389 27.0586 18.3442 27.0719 18.0456 27.0826L17.7869 27.0906C16.8142 27.1143 15.8413 27.1245 14.8683 27.1213L13.8737 27.1226H12.1284C11.1555 27.1259 10.1825 27.1157 9.20986 27.0919L8.9512 27.0839C8.63469 27.0725 8.31825 27.0591 8.0019 27.0439C6.58328 26.9773 5.61531 26.7506 4.76468 26.4226C3.87495 26.0884 3.06905 25.5638 2.40342 24.8854C1.72484 24.2191 1.19976 23.4128 0.864808 22.5228C0.535486 21.6735 0.311493 20.7055 0.244829 19.2869C0.22998 18.9705 0.216647 18.6541 0.20483 18.3376L0.198164 18.0789C0.173583 17.1063 0.162471 16.1333 0.164832 15.1603V12.4191C0.161111 11.4466 0.170889 10.4741 0.194164 9.50188L0.203497 9.24322C0.214164 8.94456 0.227496 8.64857 0.243496 8.29392C0.31016 6.87396 0.534152 5.90733 0.863475 5.05669C1.19863 4.16688 1.72473 3.36134 2.40476 2.69677C3.06993 2.0178 3.87532 1.49225 4.76468 1.15683C5.61531 0.827504 6.58195 0.603512 8.0019 0.536847L8.9512 0.496849L9.20986 0.490183C10.1821 0.465614 11.1546 0.454502 12.1271 0.45685L14.8683 0.458183ZM13.4977 7.12462C12.6144 7.11213 11.7374 7.27532 10.9178 7.6047C10.0981 7.93408 9.35205 8.42308 8.723 9.0433C8.09395 9.66351 7.59445 10.4026 7.25351 11.2175C6.91257 12.0324 6.737 12.907 6.737 13.7904C6.737 14.6738 6.91257 15.5484 7.25351 16.3633C7.59445 17.1782 8.09395 17.9173 8.723 18.5375C9.35205 19.1577 10.0981 19.6467 10.9178 19.9761C11.7374 20.3055 12.6144 20.4687 13.4977 20.4562C15.2658 20.4562 16.9614 19.7538 18.2116 18.5036C19.4618 17.2534 20.1642 15.5578 20.1642 13.7897C20.1642 12.0217 19.4618 10.326 18.2116 9.07584C16.9614 7.82564 15.2658 7.12462 13.4977 7.12462ZM13.4977 9.7912C14.029 9.78141 14.557 9.87759 15.0507 10.0741C15.5445 10.2707 15.9941 10.5636 16.3733 10.9359C16.7526 11.3081 17.0538 11.7522 17.2595 12.2422C17.4652 12.7322 17.5712 13.2583 17.5713 13.7897C17.5714 14.3211 17.4655 14.8472 17.26 15.3373C17.0545 15.8274 16.7534 16.2716 16.3743 16.6439C15.9952 17.0163 15.5456 17.3094 15.052 17.5061C14.5583 17.7028 14.0304 17.7992 13.499 17.7896C12.4382 17.7896 11.4208 17.3682 10.6707 16.6181C9.92059 15.8679 9.49918 14.8506 9.49918 13.7897C9.49918 12.7289 9.92059 11.7115 10.6707 10.9614C11.4208 10.2113 12.4382 9.78987 13.499 9.78987L13.4977 9.7912ZM20.4975 5.12469C20.0673 5.14191 19.6606 5.32489 19.3623 5.6353C19.0641 5.94572 18.8975 6.3595 18.8975 6.78997C18.8975 7.22044 19.0641 7.63422 19.3623 7.94463C19.6606 8.25505 20.0673 8.43803 20.4975 8.45524C20.9395 8.45524 21.3634 8.27966 21.6759 7.96711C21.9885 7.65456 22.1641 7.23065 22.1641 6.78863C22.1641 6.34662 21.9885 5.92271 21.6759 5.61016C21.3634 5.29761 20.9395 5.12203 20.4975 5.12203V5.12469Z" fill="#F3AE54"/>
</svg>
