<svg width="27" height="28" viewBox="0 0 27 28" fill="none" xmlns="http://www.w3.org/2000/svg">
<path d="M26.7526 11.8074C26.646 11.3305 26.3498 10.8877 26.0091 10.704C25.9055 10.6463 25.2361 10.5737 24.5222 10.5426C23.3241 10.4893 23.1923 10.4656 22.8161 10.2449C22.2163 9.89393 22.0519 9.5148 22.049 8.48699C22.046 6.52172 21.2285 4.69714 19.6113 3.05177C18.462 1.87735 17.1751 1.08354 15.7104 0.63924C15.3608 0.532609 14.573 0.495584 11.9412 0.464483C7.81374 0.415611 6.89849 0.500027 5.49007 1.05984C2.9013 2.09209 1.03526 4.26766 0.358448 7.05784C0.229602 7.58063 0.205906 8.42035 0.174805 13.2439C0.137781 19.2864 0.18073 20.1749 0.5569 21.3716C0.87087 22.3609 1.18632 22.9666 1.83203 23.8256C3.06865 25.4665 4.91693 26.6498 6.76964 26.9845C7.65083 27.143 18.5153 27.1845 19.6291 27.0319C21.5632 26.7683 23.0812 25.9923 24.5059 24.5379C25.5337 23.4864 26.178 22.3475 26.6001 20.8369C26.7733 20.209 26.7881 19.9039 26.8207 16.2207C26.8459 13.4394 26.8237 12.1361 26.7526 11.8074ZM7.57826 8.01752C8.04181 7.54953 8.16917 7.53027 11.0793 7.53027C13.6918 7.53027 13.7777 7.5362 14.1612 7.72873C14.7166 8.00863 14.958 8.40406 14.958 9.03199C14.958 9.60069 14.7314 9.99908 14.2279 10.319C13.9554 10.4893 13.794 10.5011 11.2348 10.5159C9.6546 10.5263 8.39725 10.4967 8.20916 10.4449C7.21838 10.1724 6.84961 8.75209 7.57826 8.01752ZM18.9907 19.9202L18.1066 20.0653L13.4948 20.1172C9.44282 20.1661 8.29506 20.0905 8.08624 19.9987C7.65972 19.8151 7.26577 19.2997 7.19468 18.8435C7.13248 18.4111 7.34871 17.8128 7.68341 17.5106C8.10549 17.13 8.28913 17.1167 13.4756 17.1108C18.8101 17.1078 18.7819 17.1063 19.2884 17.5773C20.0023 18.2437 19.8527 19.43 18.9907 19.9202Z" fill="#F3AE54"/>
</svg>
