<svg width="27" height="20" viewBox="0 0 27 20" fill="none" xmlns="http://www.w3.org/2000/svg">
<path d="M26.559 4.45805C26.559 4.45805 26.299 2.6196 25.4973 1.81289C24.4822 0.751154 23.3455 0.744487 22.8255 0.682817C19.0969 0.411133 13.4966 0.411133 13.4966 0.411133H13.4866C13.4866 0.411133 7.88788 0.411133 4.15765 0.682817C3.63595 0.746154 2.50088 0.751154 1.48581 1.81289C0.684095 2.6196 0.429079 4.45805 0.429079 4.45805C0.429079 4.45805 0.164062 6.61485 0.164062 8.77666V10.7984C0.164062 12.9553 0.429079 15.1171 0.429079 15.1171C0.429079 15.1171 0.689095 16.9555 1.48581 17.7639C2.50088 18.8256 3.83429 18.7906 4.42933 18.904C6.56446 19.1073 13.4982 19.169 13.4982 19.169C13.4982 19.169 19.1036 19.159 22.8321 18.8923C23.3538 18.8306 24.4889 18.824 25.504 17.7622C26.3057 16.9555 26.5657 15.1154 26.5657 15.1154C26.5657 15.1154 26.8307 12.9586 26.8307 10.7968V8.77499C26.8257 6.61819 26.5607 4.45639 26.5607 4.45639L26.559 4.45805ZM10.7347 13.2503V5.7548L17.9385 9.51504L10.7347 13.2503Z" fill="#F3AE54"/>
</svg>
