<svg width="27" height="23" viewBox="0 0 27 23" fill="none" xmlns="http://www.w3.org/2000/svg">
<path d="M8.54073 22.6239C18.6041 22.6239 24.1091 14.2855 24.1091 7.06721C24.1091 6.83388 24.1091 6.59721 24.0991 6.36388C25.1708 5.58802 26.0958 4.62746 26.8307 3.52721C25.8296 3.96863 24.7687 4.25955 23.6824 4.39054C24.8266 3.70661 25.6836 2.63049 26.0941 1.36221C25.019 1.99908 23.8424 2.44617 22.6157 2.68388C21.791 1.80558 20.6997 1.22374 19.5109 1.02847C18.322 0.833205 17.1019 1.03541 16.0396 1.60377C14.9773 2.17213 14.1321 3.07492 13.6348 4.17231C13.1376 5.2697 13.016 6.50043 13.2891 7.67388C11.1136 7.5648 8.98542 6.99966 7.04247 6.01511C5.09951 5.03057 3.3852 3.64862 2.01073 1.95888C1.31296 3.16401 1.10002 4.58954 1.41514 5.94599C1.73026 7.30243 2.54982 8.48809 3.7074 9.26221C2.83996 9.23274 1.9916 8.99981 1.23073 8.58221V8.65721C1.23222 9.91968 1.66957 11.1429 2.46885 12.1201C3.26813 13.0974 4.38031 13.7687 5.6174 14.0205C5.14783 14.1499 4.66278 14.2144 4.17573 14.2122C3.83237 14.2133 3.4897 14.1814 3.1524 14.1172C3.50204 15.204 4.18285 16.1542 5.09947 16.8347C6.0161 17.5152 7.12262 17.892 8.26406 17.9122C6.32499 19.4352 3.92973 20.2612 1.46406 20.2572C1.0296 20.259 0.595434 20.234 0.164062 20.1822C2.66659 21.7776 5.57289 22.6248 8.54073 22.6239Z" fill="#F3AE54"/>
</svg>
